<svg xmlns="http://www.w3.org/2000/svg" width="24.714" height="35.279" viewBox="0 0 24.714 35.279">
  <g id="Raggruppa_94" data-name="Raggruppa 94" transform="translate(-271.211 -328.33)">
    <path id="Tracciato_2230" data-name="Tracciato 2230" d="M278.045,329.6s-7.866,10.162-5.7,15.2a7.332,7.332,0,0,0,1.02,1.7c4.773,5.937,13.431-.525,10.2-7.586A63.265,63.265,0,0,0,278.045,329.6Z" transform="translate(0 0)" fill="none" stroke="#016240" stroke-miterlimit="10" stroke-width="1.5"/>
    <path id="Tracciato_2231" data-name="Tracciato 2231" d="M330.36,397.875s-7.866,10.162-5.7,15.2a7.325,7.325,0,0,0,1.02,1.7c4.773,5.938,13.431-.524,10.2-7.586A63.261,63.261,0,0,0,330.36,397.875Z" transform="translate(-41.565 -54.246)" fill="none" stroke="#016240" stroke-miterlimit="10" stroke-width="1.5"/>
  </g>
</svg>
