<svg xmlns="http://www.w3.org/2000/svg" width="36.754" height="37.278" viewBox="0 0 36.754 37.278">
  <g id="Raggruppa_95" data-name="Raggruppa 95" transform="translate(-430.327 -321.903)">
    <ellipse id="Ellisse_159" data-name="Ellisse 159" cx="4.918" cy="3.654" rx="4.918" ry="3.654" transform="matrix(0.602, -0.799, 0.799, 0.602, 431.378, 331.489)" fill="none" stroke="#286043" stroke-miterlimit="10" stroke-width="1.5"/>
    <ellipse id="Ellisse_160" data-name="Ellisse 160" cx="4.918" cy="3.654" rx="4.918" ry="3.654" transform="matrix(0.602, -0.799, 0.799, 0.602, 445.658, 330.809)" fill="none" stroke="#286043" stroke-miterlimit="10" stroke-width="1.5"/>
    <ellipse id="Ellisse_161" data-name="Ellisse 161" cx="4.918" cy="3.654" rx="4.918" ry="3.654" transform="matrix(0.602, -0.799, 0.799, 0.602, 454.277, 339.637)" fill="none" stroke="#286043" stroke-miterlimit="10" stroke-width="1.5"/>
    <ellipse id="Ellisse_162" data-name="Ellisse 162" cx="4.918" cy="3.654" rx="4.918" ry="3.654" transform="matrix(0.602, -0.799, 0.799, 0.602, 453.556, 353.676)" fill="none" stroke="#286043" stroke-miterlimit="10" stroke-width="1.5"/>
    <path id="Tracciato_2232" data-name="Tracciato 2232" d="M449.845,386.839s-4.58-4.008-9.661-1.723a7.768,7.768,0,0,0-2.2,1.557c-.44.427-1.447,1.051-3.643,1.189-3.409.213-4.627,8.067.213,9.924a10.075,10.075,0,0,1,5.4,5.13,6.034,6.034,0,0,0,3.942,3.279,4.727,4.727,0,0,0,5.331-1.938,7.2,7.2,0,0,0,1.286-3.318,3.414,3.414,0,0,1,1.936-2.7C454.737,397.085,453.872,389.834,449.845,386.839Z" transform="translate(0 -47.959)" fill="none" stroke="#286043" stroke-miterlimit="10" stroke-width="1.5"/>
  </g>
</svg>
