<svg xmlns="http://www.w3.org/2000/svg" width="37.4" height="35.347" viewBox="0 0 37.4 35.347">
  <g id="Raggruppa_93" data-name="Raggruppa 93" transform="translate(-35.921 -329.496)">
    <path id="Tracciato_2227" data-name="Tracciato 2227" d="M55.928,376.918l-7,6.043a4.754,4.754,0,0,0-1.619,2.843,2.159,2.159,0,0,0,1.423,2.659,3.342,3.342,0,0,0,3.534-.946l15.564-17.012s2.163,1.854,5.949-1.931S81.189,361,81.189,361" transform="translate(-8.41 -24.637)" fill="none" stroke="#286043" stroke-miterlimit="10" stroke-width="1.5"/>
    <line id="Linea_33" data-name="Linea 33" x1="7.185" y2="7.107" transform="translate(63.355 333.818)" fill="none" stroke="#286043" stroke-miterlimit="10" stroke-width="1.5"/>
    <line id="Linea_34" data-name="Linea 34" x1="7.107" y2="7.262" transform="translate(61.501 331.809)" fill="none" stroke="#286043" stroke-miterlimit="10" stroke-width="1.5"/>
    <path id="Tracciato_2228" data-name="Tracciato 2228" d="M66.947,330.032l-8.382,8.189a4.965,4.965,0,0,0-1.313,5.794l-6.18,5.176-2.781-3.4a5.815,5.815,0,0,1-8.019-1.073c-3.726-4.028-3.574-7.348-3.574-7.348s-.6-6.64,6.161-5.135a11.772,11.772,0,0,1,6.989,4.894,7.691,7.691,0,0,1,1.37,3.484,3.771,3.771,0,0,1-.923,3.316l3.153,2.7" fill="none" stroke="#286043" stroke-miterlimit="10" stroke-width="1.5"/>
    <path id="Tracciato_2229" data-name="Tracciato 2229" d="M123.156,424.961l10.5,9.674a3.618,3.618,0,0,1,1.173,3.108c-.15,1.143-.885,2.206-3.266,1.758a3.625,3.625,0,0,1-2.049-1.192l-9.374-10.738" transform="translate(-66.387 -75.512)" fill="none" stroke="#286043" stroke-miterlimit="10" stroke-width="1.5"/>
  </g>
</svg>
