<svg xmlns="http://www.w3.org/2000/svg" viewBox="4.5 4.5 17.23093605041504 17.23093414306641" >
  <path fill="rgba(123,173,119,1)" d="M 20.30848693847656 13.11322402954102 C 20.30848693847656 12.17115211486816 20.89631271362305 11.36814880371094 21.73093605041504 11.04515266418457 C 21.51106071472168 10.12551116943359 21.14759826660156 9.264188766479492 20.66746711730957 8.483614921569824 C 20.38028335571289 8.609224319458008 20.07515144348145 8.676515579223633 19.76553344726562 8.676515579223633 C 19.20014381408691 8.676515579223633 18.63475227355957 8.461184501647949 18.19949340820312 8.030523300170898 C 17.53089714050293 7.362101554870605 17.3828182220459 6.379656314849854 17.74179458618164 5.563193798065186 C 16.96550559997559 5.083187103271484 16.09947204589844 4.7198166847229 15.18407726287842 4.5 C 14.86548519134521 5.329920291900635 14.05778503417969 5.922079086303711 13.11546802520752 5.922079086303711 C 12.17315101623535 5.922079086303711 11.36545085906982 5.329920291900635 11.0468578338623 4.5 C 10.12697696685791 4.7198166847229 9.265430450439453 5.083187103271484 8.484652519226074 5.563194274902344 C 8.848117828369141 6.375170230865479 8.695552825927734 7.362101554870605 8.026955604553223 8.030523300170898 C 7.596182823181152 8.461185455322266 7.02630615234375 8.676516532897949 6.460916042327881 8.676516532897949 C 6.151297569274902 8.676516532897949 5.846166133880615 8.613711357116699 5.558984279632568 8.483615875244141 C 5.083338737487793 9.268674850463867 4.719873905181885 10.12999820709229 4.5 11.04963874816895 C 5.330136299133301 11.36814880371094 5.922449588775635 12.17115211486816 5.922449588775635 13.11770915985107 C 5.922449588775635 14.05978202819824 5.334623336791992 14.86278629302979 4.50448751449585 15.18578052520752 C 4.724361419677734 16.10542106628418 5.087826251983643 16.96674346923828 5.567958831787109 17.74731636047363 C 5.855141162872314 17.62170791625977 6.160272121429443 17.55890464782715 6.46540355682373 17.55890464782715 C 7.0307936668396 17.55890464782715 7.596183776855469 17.77423286437988 8.03144359588623 18.20489692687988 C 8.695552825927734 18.86883163452148 8.848118782043457 19.85576438903809 8.489140510559082 20.6677417755127 C 9.269917488098145 21.14774894714355 10.13595199584961 21.51111602783203 11.05134582519531 21.73093414306641 C 11.36993885040283 20.90101432800293 12.17315101623535 20.31334114074707 13.11546802520752 20.31334114074707 C 14.05778503417969 20.31334114074707 14.86099815368652 20.90101432800293 15.17959022521973 21.73093414306641 C 16.09947204589844 21.51111602783203 16.96101951599121 21.14774894714355 17.74179458618164 20.6677417755127 C 17.3828182220459 19.85576629638672 17.5353832244873 18.87331771850586 18.19949340820312 18.20489692687988 C 18.63026428222656 17.77423477172852 19.19565582275391 17.55890464782715 19.76553344726562 17.55890464782715 C 20.07066535949707 17.55890464782715 20.38028335571289 17.62170791625977 20.66297912597656 17.74731636047363 C 21.14311218261719 16.96674156188965 21.5065746307373 16.1009349822998 21.72644996643066 15.18578052520752 C 20.90080070495605 14.86278629302979 20.30848693847656 14.05978202819824 20.30848693847656 13.11322402954102 Z M 13.15585422515869 16.69758415222168 C 11.16801261901855 16.69758415222168 9.566074371337891 15.0870885848999 9.566074371337891 13.10873794555664 C 9.566074371337891 11.13038730621338 11.16801261901855 9.519895553588867 13.15585422515869 9.519895553588867 C 15.14369297027588 9.519895553588867 16.74563407897949 11.13038730621338 16.74563407897949 13.10873794555664 C 16.74563407897949 15.0870885848999 15.14369297027588 16.69758415222168 13.15585422515869 16.69758415222168 Z"/>
</svg>