<svg id="baseline-center_focus_weak-24px" xmlns="http://www.w3.org/2000/svg" width="21.676" height="21.676" viewBox="2 2 23.676 23.676">
  <path id="Tracciato_1534" data-name="Tracciato 1534" d="M0,0H27.676V27.676H0Z" fill="none"/>
  <path id="Tracciato_1535" data-name="Tracciato 1535" d="M5.306,16.838H3v4.613a2.313,2.313,0,0,0,2.306,2.306H9.919V21.451H5.306Zm0-11.532H9.919V3H5.306A2.313,2.313,0,0,0,3,5.306V9.919H5.306ZM21.451,3H16.838V5.306h4.613V9.919h2.306V5.306A2.313,2.313,0,0,0,21.451,3Zm0,18.451H16.838v2.306h4.613a2.313,2.313,0,0,0,2.306-2.306V16.838H21.451ZM13.379,8.766a4.613,4.613,0,1,0,4.613,4.613A4.611,4.611,0,0,0,13.379,8.766Zm0,6.919a2.306,2.306,0,1,1,2.306-2.306A2.313,2.313,0,0,1,13.379,15.685Z" transform="translate(0.46 0.46)" fill="#fffef5"/>
</svg>
