<svg xmlns="http://www.w3.org/2000/svg" viewBox="4.5 4.492969512939453 18.82681846618652 19.050304412841797">
  <path fill="#ffffff" d="M 23.32681846618652 22.16447067260742 L 18.02851867675781 16.81788635253906 C 19.06535911560059 15.51843738555908 19.69043922424316 13.8718090057373 19.69043922424316 12.08135032653809 C 19.69043922424316 7.890381336212158 16.29218673706055 4.492969512939453 12.0952205657959 4.492969512939453 C 7.898253440856934 4.492969512939453 4.5 7.895341396331787 4.5 12.08631038665771 C 4.5 16.27727508544922 7.898253440856934 19.6746883392334 12.0952205657959 19.6746883392334 C 13.91092872619629 19.6746883392334 15.57284832000732 19.03984260559082 16.88253974914551 17.97846031188965 L 22.14611053466797 23.29032897949219 C 22.30486106872559 23.45895957946777 22.52314186096191 23.54327392578125 22.73646354675293 23.54327392578125 C 22.93986320495605 23.54327392578125 23.14326095581055 23.4688777923584 23.29705238342285 23.32008743286133 C 23.62447357177734 23.00762557983398 23.63439750671387 22.49181175231934 23.32681846618652 22.16447067260742 Z M 12.0952205657959 18.04293823242188 C 10.50275421142578 18.04293823242188 9.004546165466309 17.4229736328125 7.878409385681152 16.29711532592773 C 6.752272605895996 15.17125415802002 6.132153987884521 13.67341995239258 6.132153987884521 12.08630847930908 C 6.132153987884521 10.49423694610596 6.752272605895996 8.996399879455566 7.878409385681152 7.875502109527588 C 9.004546165466309 6.749643802642822 10.50275421142578 6.129678249359131 12.0952205657959 6.129678249359131 C 13.6876859664917 6.129678249359131 15.18589305877686 6.749643802642822 16.3120288848877 7.875502109527588 C 17.43816757202148 9.001358985900879 18.05828475952148 10.49919700622559 18.05828475952148 12.08630847930908 C 18.05828475952148 13.67838001251221 17.43816757202148 15.17621612548828 16.3120288848877 16.29711532592773 C 15.18589305877686 17.4229736328125 13.6876859664917 18.04293823242188 12.0952205657959 18.04293823242188 Z"/>
</svg>