<svg xmlns="http://www.w3.org/2000/svg" width="46.5" height="25.507" viewBox="0 0 46.5 25.507">
  <g id="Raggruppa_97" data-name="Raggruppa 97" transform="translate(-882.361 -334.269)">
    <circle id="Ellisse_163" data-name="Ellisse 163" cx="5.92" cy="5.92" r="5.92" transform="translate(899.554 335.019)" fill="none" stroke="#286043" stroke-miterlimit="10" stroke-width="1.5"/>
    <circle id="Ellisse_164" data-name="Ellisse 164" cx="4.186" cy="4.186" r="4.186" transform="translate(915.359 338.988)" fill="none" stroke="#286043" stroke-miterlimit="10" stroke-width="1.5"/>
    <circle id="Ellisse_165" data-name="Ellisse 165" cx="4.186" cy="4.186" r="4.186" transform="translate(887.357 338.988)" fill="none" stroke="#286043" stroke-miterlimit="10" stroke-width="1.5"/>
    <path id="Tracciato_2238" data-name="Tracciato 2238" d="M895.169,407.957s-3.069,1.973-2.083,7.893h-9.975V411.9a4.2,4.2,0,0,1,4.246-3.946Z" transform="translate(0 -58.469)" fill="none" stroke="#286043" stroke-miterlimit="10" stroke-width="1.5"/>
    <path id="Tracciato_2239" data-name="Tracciato 2239" d="M1049.158,407.957s3.069,1.973,2.083,7.893h9.975V411.9a4.2,4.2,0,0,0-4.246-3.946Z" transform="translate(-133.105 -58.469)" fill="none" stroke="#286043" stroke-miterlimit="10" stroke-width="1.5"/>
    <path id="Tracciato_2240" data-name="Tracciato 2240" d="M943.893,415.275v-4.933s.11-4.385,5.372-5.152h10.3s5.152-.219,5.152,5.7v4.385Z" transform="translate(-48.724 -56.249)" fill="none" stroke="#286043" stroke-miterlimit="10" stroke-width="1.5"/>
  </g>
</svg>
