<svg xmlns="http://www.w3.org/2000/svg" width="47.149" height="32.756" viewBox="0 0 47.149 32.756">
  <g id="Raggruppa_96" data-name="Raggruppa 96" transform="translate(-628.056 -340.527)">
    <path id="Tracciato_2233" data-name="Tracciato 2233" d="M667.488,368.282c18.322,11.88,18.563,22.276,18.563,22.276s-1.844-17.56,11.557-26.311" transform="translate(-29.273 -17.456)" fill="none" stroke="#286043" stroke-miterlimit="10" stroke-width="1.5"/>
    <path id="Tracciato_2234" data-name="Tracciato 2234" d="M746.232,448.188s1.575-6.347,10.053-8.535" transform="translate(-89.453 -75.085)" fill="none" stroke="#286043" stroke-miterlimit="10" stroke-width="1.5"/>
    <path id="Tracciato_2235" data-name="Tracciato 2235" d="M652.076,377.561s-10.712,8.248-22.89-16.786C629.186,360.775,660.6,356.639,652.076,377.561Z" transform="translate(0 -14.548)" fill="none" stroke="#286043" stroke-miterlimit="10" stroke-width="1.5"/>
    <path id="Tracciato_2236" data-name="Tracciato 2236" d="M751.193,357s-10.486-12.567,14.559-15.592a101.753,101.753,0,0,1-4.066,11.125C759.134,358.391,751.193,357,751.193,357Z" transform="translate(-91.58 0)" fill="none" stroke="#286043" stroke-miterlimit="10" stroke-width="1.5"/>
    <path id="Tracciato_2237" data-name="Tracciato 2237" d="M760.628,435.942s-2.387-8.333,10.654-4.459C771.282,431.483,769.935,441.159,760.628,435.942Z" transform="translate(-100.325 -68.056)" fill="none" stroke="#286043" stroke-miterlimit="10" stroke-width="1.5"/>
  </g>
</svg>
