<svg xmlns="http://www.w3.org/2000/svg" viewBox="2 2 20 20">
  <path fill="#ffffff" d="M 11.98999977111816 2 C 6.46999979019165 2 2 6.480000019073486 2 12 C 2 17.52000045776367 6.46999979019165 22 11.98999977111816 22 C 17.52000045776367 22 22 17.52000045776367 22 12 C 22 6.479999542236328 17.52000045776367 2 11.98999977111816 2 Z M 18.92000007629395 8 L 15.97000026702881 8 C 15.65000057220459 6.75 15.19000053405762 5.550000190734863 14.59000015258789 4.440000057220459 C 16.43000030517578 5.070000171661377 17.95999908447266 6.349999904632568 18.92000007629395 8 Z M 12 4.039999961853027 C 12.82999992370605 5.239999771118164 13.47999954223633 6.569999694824219 13.90999984741211 8 L 10.09000015258789 8 C 10.52000045776367 6.570000171661377 11.17000007629395 5.239999771118164 12 4.039999961853027 Z M 4.260000228881836 14 C 4.099999904632568 13.35999965667725 4 12.6899995803833 4 12 C 4 11.3100004196167 4.099999904632568 10.64000034332275 4.260000228881836 10 L 7.640000343322754 10 C 7.560000419616699 10.65999984741211 7.500000476837158 11.31999969482422 7.500000476837158 12 C 7.500000476837158 12.68000030517578 7.560000419616699 13.34000015258789 7.640000343322754 14 L 4.260000228881836 14 Z M 5.080000400543213 16 L 8.030000686645508 16 C 8.350000381469727 17.25 8.810000419616699 18.45000076293945 9.410000801086426 19.55999946594238 C 7.570000648498535 18.93000030517578 6.040000915527344 17.65999984741211 5.080000877380371 16 Z M 8.030000686645508 8 L 5.079999923706055 8 C 6.039999961853027 6.340000152587891 7.569999694824219 5.069999694824219 9.409999847412109 4.440000057220459 C 8.810000419616699 5.550000190734863 8.350000381469727 6.75 8.029999732971191 8 Z M 12 19.95999908447266 C 11.17000007629395 18.7599983215332 10.52000045776367 17.42999839782715 10.09000015258789 15.99999904632568 L 13.90999984741211 15.99999904632568 C 13.47999954223633 17.42999839782715 12.82999992370605 18.7599983215332 12 19.95999908447266 Z M 14.34000015258789 14 L 9.659999847412109 14 C 9.569999694824219 13.34000015258789 9.5 12.68000030517578 9.5 12 C 9.5 11.31999969482422 9.569999694824219 10.64999961853027 9.659999847412109 10 L 14.34000015258789 10 C 14.43000030517578 10.64999961853027 14.5 11.31999969482422 14.5 12 C 14.5 12.68000030517578 14.43000030517578 13.34000015258789 14.34000015258789 14 Z M 14.59000015258789 19.55999946594238 C 15.19000053405762 18.44999885559082 15.64999961853027 17.25 15.97000026702881 16 L 18.92000007629395 16 C 17.96000099182129 17.64999961853027 16.43000030517578 18.93000030517578 14.59000015258789 19.55999946594238 Z M 16.36000061035156 14 C 16.44000053405762 13.34000015258789 16.5 12.68000030517578 16.5 12 C 16.5 11.31999969482422 16.44000053405762 10.65999984741211 16.36000061035156 10 L 19.7400016784668 10 C 19.90000152587891 10.64000034332275 20.00000190734863 11.30999946594238 20.00000190734863 12 C 20.00000190734863 12.69000053405762 19.90000152587891 13.35999965667725 19.7400016784668 14 L 16.36000061035156 14 Z"/>
</svg>